<?xml version="1.0" encoding="iso-8859-1"?>
<!-- Generator: Adobe Illustrator 19.0.0, SVG Export Plug-In . SVG Version: 6.00 Build 0)  -->
<svg version="1.1" xmlns="http://www.w3.org/2000/svg" xmlns:xlink="http://www.w3.org/1999/xlink" x="0px" y="0px"
	 viewBox="0 0 364.548 93.544" style="enable-background:new 0 0 364.548 93.544;" xml:space="preserve">
<g id="logo">
	<g id="XMLID_22_">
		<polygon id="XMLID_23_" style="fill:#F0F0EE;" points="55.819,50.356 59.553,45.894 66.977,59.038 73.548,59.038 63.285,41.635 
			72.86,30.153 66.003,30.153 55.819,42.729 55.819,30.153 50.18,30.153 50.18,59.038 55.819,59.038 		"/>
		<path id="XMLID_24_" style="fill:#F0F0EE;" d="M98.932,56.807c2.055-1.785,3.083-4.205,3.083-7.263V30.153h-5.638v19.149
			c0,3.301-1.515,4.95-4.544,4.95c-1.379,0-2.61-0.54-3.692-1.622l-3.732,3.692c1.974,1.974,4.447,2.962,7.424,2.962
			C94.673,59.283,97.038,58.456,98.932,56.807z"/>
		<path id="XMLID_49_" style="fill:#F0F0EE;" d="M141.246,48.165h5.559c2.892,0,5.232-0.891,7.018-2.677
			c1.676-1.676,2.516-3.786,2.516-6.329c0-2.541-0.839-4.65-2.516-6.329c-1.785-1.785-4.125-2.677-7.018-2.677h-11.197v28.885h5.638
			V48.165z M141.246,35.182h5.274c1.27,0,2.286,0.366,3.043,1.097c0.758,0.73,1.137,1.691,1.137,2.88
			c0,1.191-0.379,2.144-1.137,2.86c-0.758,0.718-1.773,1.075-3.043,1.075h-5.274V35.182z"/>
		<path id="XMLID_52_" style="fill:#F0F0EE;" d="M172.859,53.927h10.264l1.704,5.111h5.883l-10.549-28.885h-4.422l-10.507,28.885
			h5.883L172.859,53.927z M178.094,38.671l3.529,10.509h-7.181L178.094,38.671z"/>
		<path id="XMLID_55_" style="fill:#F0F0EE;" d="M209.376,47.516h4.058l5.638,11.522h6.532l-6.451-12.455
			c1.513-0.54,2.744-1.419,3.692-2.637c1.055-1.379,1.582-3.028,1.582-4.947c0-2.516-0.827-4.598-2.476-6.25
			c-1.731-1.728-4.029-2.595-6.896-2.595h-11.319v28.885h5.638V47.516z M209.376,35.182h5.316c1.216,0,2.204,0.352,2.962,1.05
			c0.755,0.701,1.134,1.615,1.134,2.744c0,1.132-0.379,2.045-1.134,2.746c-0.758,0.698-1.746,1.047-2.962,1.047h-5.316V35.182z"/>
		<rect id="XMLID_56_" x="239.195" y="30.153" style="fill:#F0F0EE;" width="5.638" height="28.885"/>
		<path id="XMLID_57_" style="fill:#F0F0EE;" d="M268.81,54.251c-3.028,0-5.354-0.812-6.978-2.434l-3.65,3.65
			c2.513,2.543,6.03,3.816,10.549,3.816c3.108,0,5.671-0.778,7.686-2.335c2.016-1.553,3.023-3.697,3.023-6.428
			c0-2.679-0.745-4.72-2.231-6.126c-1.218-1.137-3.058-1.879-5.517-2.231l-3.41-0.488c-1.134-0.163-2.008-0.527-2.615-1.094
			c-0.609-0.57-0.914-1.273-0.914-2.11c0-1.055,0.386-1.929,1.156-2.617c0.77-0.691,1.872-1.035,3.306-1.035
			c2.57,0,4.544,0.664,5.923,1.988l3.571-3.531c-2.328-2.243-5.435-3.365-9.33-3.365c-3.085,0-5.532,0.805-7.344,2.412
			c-1.813,1.61-2.719,3.727-2.719,6.349c0,4.68,2.558,7.372,7.669,8.075l3.489,0.488c1.164,0.161,2.028,0.505,2.598,1.033
			c0.567,0.527,0.852,1.332,0.852,2.414C273.924,53.06,272.22,54.251,268.81,54.251z"/>
		<polygon id="XMLID_58_" style="fill:#F0F0EE;" points="298.951,46.949 308.729,46.949 308.729,59.038 314.368,59.038 
			314.368,30.153 308.729,30.153 308.729,41.959 298.951,41.959 298.951,30.153 293.312,30.153 293.312,59.038 298.951,59.038 		"/>
		<path id="XMLID_61_" style="fill:#F0F0EE;" d="M0,0v93.544h364.548V0H0z M362.012,91.008H2.536V2.536h359.477V91.008z"/>
	</g>
</g>
<g id="Layer_1">
</g>
</svg>
